<?xml version="1.0" encoding="UTF-8" standalone="no"?>
<!-- Created with Inkscape (http://www.inkscape.org/) -->

<svg
   xmlns:dc="http://purl.org/dc/elements/1.1/"
   xmlns:cc="http://creativecommons.org/ns#"
   xmlns:rdf="http://www.w3.org/1999/02/22-rdf-syntax-ns#"
   xmlns:svg="http://www.w3.org/2000/svg"
   xmlns="http://www.w3.org/2000/svg"
   xmlns:sodipodi="http://sodipodi.sourceforge.net/DTD/sodipodi-0.dtd"
   xmlns:inkscape="http://www.inkscape.org/namespaces/inkscape"
   width="440"
   height="440"
   viewBox="0 0 116.41666 116.41667"
   version="1.1"
   id="svg8"
   inkscape:version="0.92.2 (5c3e80d, 2017-08-06)"
   sodipodi:docname="logo-yt5.svg">
  <defs
     id="defs2" />
  <sodipodi:namedview
     id="base"
     pagecolor="#ffffff"
     bordercolor="#666666"
     borderopacity="1.0"
     inkscape:pageopacity="0.0"
     inkscape:pageshadow="2"
     inkscape:zoom="1.0251366"
     inkscape:cx="232.85714"
     inkscape:cy="212.85714"
     inkscape:document-units="mm"
     inkscape:current-layer="g4069"
     showgrid="false"
     units="px"
     inkscape:window-width="1366"
     inkscape:window-height="705"
     inkscape:window-x="-8"
     inkscape:window-y="-8"
     inkscape:window-maximized="1" />
  <metadata
     id="metadata5">
    <rdf:RDF>
      <cc:Work
         rdf:about="">
        <dc:format>image/svg+xml</dc:format>
        <dc:type
           rdf:resource="http://purl.org/dc/dcmitype/StillImage" />
        <dc:title></dc:title>
      </cc:Work>
    </rdf:RDF>
  </metadata>
  <g
     inkscape:label="Capa 1"
     inkscape:groupmode="layer"
     id="layer1"
     transform="translate(0,-180.58332)">
    <g
       id="g4069"
       transform="matrix(1.605247,0,0,1.5980776,-21.932727,159.54078)">
      <path
         id="path4057"
         d="m 45.19,70.391 c -0.696,0.984 -1.355,1.469 -1.985,1.469 -0.42,0 -0.659,-0.246 -0.735,-0.734 -0.03,-0.101 -0.03,-0.484 -0.03,-1.22 V 57.146 H 39.302 V 70.85 c 0,1.225 0.104,2.051 0.277,2.576 0.313,0.878 1.011,1.289 2.023,1.289 1.154,0 2.34,-0.697 3.587,-2.129 v 1.891 h 3.143 V 57.147 H 45.19 Z"
         inkscape:connector-curvature="0"
         style="fill:#ff0000;fill-opacity:1" />
      <polygon
         id="polygon4059"
         points="35.083,74.477 35.083,54.492 38.845,54.492 38.845,51.218 27.897,51.218 27.897,54.492 31.591,54.492 31.591,74.477 "
         style="fill:#231f20" />
      <path
         id="path4061"
         d="m 49.281,39.34 c 1.023,0 1.513,-0.81 1.513,-2.431 v -7.368 c 0,-1.619 -0.49,-2.426 -1.513,-2.426 -1.024,0 -1.515,0.807 -1.515,2.426 v 7.368 c 0.001,1.62 0.491,2.431 1.515,2.431 z"
         inkscape:connector-curvature="0"
         style="fill:#ff0000;fill-opacity:1" />
      <path
         id="path4063"
         d="m 57.434,56.935 c -1.154,0 -2.23,0.632 -3.243,1.88 V 51.218 H 51.05 v 23.259 h 3.141 v -1.682 c 1.048,1.299 2.127,1.92 3.243,1.92 1.251,0 2.091,-0.658 2.511,-1.947 0.209,-0.735 0.316,-1.889 0.316,-3.492 v -6.901 c 0,-1.64 -0.107,-2.786 -0.316,-3.483 -0.421,-1.299 -1.26,-1.957 -2.511,-1.957 z m -0.313,12.587 c 0,1.565 -0.461,2.337 -1.366,2.337 -0.516,0 -1.04,-0.246 -1.565,-0.771 V 60.524 c 0.525,-0.517 1.048,-0.763 1.565,-0.763 0.906,0 1.366,0.802 1.366,2.365 z"
         inkscape:connector-curvature="0"
         style="fill:#ff0000;fill-opacity:1" />
      <path
         id="path4065"
         d="m 67.435,56.935 c -1.602,0 -2.854,0.591 -3.76,1.778 -0.668,0.875 -0.971,2.229 -0.971,4.08 v 6.072 c 0,1.84 0.342,3.209 1.009,4.074 0.907,1.183 2.157,1.775 3.801,1.775 1.64,0 2.927,-0.621 3.797,-1.877 0.38,-0.559 0.628,-1.188 0.733,-1.883 0.028,-0.315 0.067,-1.013 0.067,-2.023 v -0.46 h -3.205 c 0,1.26 -0.039,1.957 -0.068,2.128 -0.179,0.839 -0.631,1.259 -1.403,1.259 -1.078,0 -1.602,-0.8 -1.602,-2.404 v -3.072 h 6.279 v -3.59 c 0,-1.852 -0.315,-3.205 -0.972,-4.08 -0.879,-1.187 -2.129,-1.777 -3.705,-1.777 z m 1.537,6.834 h -3.139 v -1.603 c 0,-1.602 0.524,-2.404 1.574,-2.404 1.039,0 1.565,0.802 1.565,2.404 z"
         inkscape:connector-curvature="0"
         style="fill:#ff0000;fill-opacity:1" />
      <path
         id="path4067"
         d="M 79,14 H 21 c -3.85,0 -7,3.15 -7,7 v 58 c 0,3.85 3.15,7 7,7 h 58 c 3.85,0 7,-3.15 7,-7 V 21 c 0,-3.85 -3.15,-7 -7,-7 z M 56.58,24.47 h 3.163 v 12.892 c 0,0.746 0,1.133 0.039,1.235 0.07,0.492 0.318,0.743 0.744,0.743 0.634,0 1.301,-0.492 2.004,-1.486 V 24.47 h 3.174 V 41.98 H 62.53 v -1.91 c -1.263,1.449 -2.468,2.153 -3.625,2.153 -1.022,0 -1.727,-0.415 -2.044,-1.303 -0.175,-0.529 -0.281,-1.368 -0.281,-2.604 z m -11.987,5.708 c 0,-1.871 0.319,-3.24 0.994,-4.125 0.878,-1.196 2.114,-1.795 3.694,-1.795 1.59,0 2.824,0.599 3.703,1.795 0.664,0.885 0.985,2.254 0.985,4.125 v 6.135 c 0,1.86 -0.32,3.24 -0.985,4.119 -0.879,1.193 -2.112,1.792 -3.703,1.792 -1.581,0 -2.817,-0.599 -3.694,-1.792 -0.675,-0.879 -0.994,-2.259 -0.994,-4.119 z m -8.486,-11.696 2.499,9.227 2.399,-9.227 h 3.558 l -4.232,13.982 v 9.516 h -3.52 v -9.516 c -0.318,-1.688 -1.022,-4.158 -2.15,-7.435 -0.742,-2.18 -1.515,-4.37 -2.256,-6.547 z m 38.966,57.036 c -0.634,2.763 -2.896,4.801 -5.616,5.104 -6.444,0.72 -12.965,0.724 -19.457,0.72 -6.493,0.004 -13.014,0 -19.457,-0.72 -2.721,-0.304 -4.979,-2.342 -5.614,-5.104 -0.905,-3.936 -0.905,-8.232 -0.905,-12.282 0,-4.054 0.01,-8.347 0.916,-12.284 0.634,-2.762 2.893,-4.799 5.614,-5.103 6.443,-0.722 12.964,-0.724 19.457,-0.722 6.492,-0.002 13.013,0 19.457,0.722 2.719,0.304 4.98,2.341 5.615,5.103 0.905,3.938 0.9,8.23 0.9,12.284 10e-4,4.05 -0.004,8.346 -0.91,12.282 z"
         inkscape:connector-curvature="0"
         style="fill:#ff0000;fill-opacity:1" />
      <path
         style="stroke-width:0.97547972;fill:#ff0000"
         d="M 109.16631,309.27825 V 248.79851 H 97.948294 86.730277 v -9.26706 -9.26706 h 32.678573 32.67857 v 9.26706 9.26706 H 140.8694 129.65139 v 60.47974 60.47975 h -10.24254 -10.24254 z"
         id="path4117"
         inkscape:connector-curvature="0"
         transform="matrix(0.16482406,0,0,0.16556351,13.663148,13.167408)" />
      <path
         style="fill:#ff0000;stroke-width:0.97547972;opacity:0;fill-opacity:1"
         d="m 443.23132,429.01839 c -0.25482,-0.67064 -0.35079,-98.01133 -0.21326,-216.31263 L 443.26812,-2.3875267 659.58076,-2.6335594 875.89339,-2.8795921 V 213.67907 430.23774 H 659.79402 c -171.98209,0 -216.19397,-0.24893 -216.5627,-1.21935 z m 312.19032,-31.47752 c 28.06856,-1.99176 34.74415,-4.15249 43.73951,-14.15749 9.24335,-10.28083 12.48968,-21.77238 14.24897,-50.43937 1.12872,-18.39206 0.49958,-82.72906 -0.92776,-94.87578 -3.57538,-30.42643 -12.56177,-43.78626 -32.77685,-48.72845 -13.34888,-3.26354 -35.73595,-4.20477 -111.10157,-4.67112 -104.9556,-0.64944 -130.20747,1.1943 -143.03358,10.44348 -9.78847,7.05868 -14.80908,16.55678 -17.53756,33.17796 -5.01978,30.57915 -4.67842,103.86149 0.61287,131.56934 2.17452,11.38689 5.11205,17.40238 11.81122,24.18717 9.06577,9.1816 19.42909,12.78945 37.74456,13.14023 3.31439,0.0635 7.34306,0.45051 8.9526,0.86007 1.60954,0.40955 40.01906,0.79031 85.35448,0.84611 64.0533,0.0788 86.99454,-0.22258 102.91311,-1.35215 z M 667.5387,165.18921 c 8.46107,-4.37531 12.53818,-9.75239 14.82216,-19.54814 1.27364,-5.46249 1.46026,-11.48594 1.09555,-35.36069 -0.49096,-32.139723 -0.74866,-33.647847 -6.95415,-40.697662 -5.72935,-6.508877 -11.82186,-9.030471 -21.84734,-9.042272 -11.78955,-0.01388 -19.42526,4.519671 -24.28689,14.419851 l -2.73423,5.567955 V 114.1823 c 0,37.56168 -0.071,37.10681 7.02109,44.95695 3.73475,4.13392 7.58361,6.54986 12.4885,7.83903 4.28029,1.125 16.90091,0.0179 20.39531,-1.78907 z m 54.92566,-0.41114 c 1.97336,-1.21961 4.98812,-3.44685 6.69945,-4.94942 l 3.11153,-2.73196 0.65098,4.34104 c 0.6319,4.21381 0.77097,4.35877 4.74479,4.94574 2.2516,0.33258 6.72761,0.46571 9.94669,0.29585 l 5.85288,-0.30885 V 113.69456 61.018657 l -9.69758,0.26795 c -5.33368,0.147373 -9.79616,0.366856 -9.91663,0.48774 -0.12047,0.120885 -0.52822,18.217391 -0.90611,40.214463 -0.66893,38.93913 -0.74189,40.05591 -2.7646,42.31521 -2.49022,2.78149 -7.75985,5.18694 -9.7174,4.43576 -0.77455,-0.29722 -1.67703,-1.88411 -2.00549,-3.52642 -0.32845,-1.64231 -0.5972,-21.11664 -0.5972,-43.27629 V 61.646781 l -5.12127,-0.630537 c -2.81669,-0.346794 -7.3161,-0.488122 -9.99866,-0.314061 l -4.8774,0.316474 0.0241,48.303313 0.0241,48.30329 2.3175,3.74982 c 1.27464,2.06239 3.67809,4.36896 5.34102,5.12568 4.17001,1.89762 12.38767,1.05942 16.88923,-1.72269 z m -121.90013,1.4653 2.19483,-0.58818 v -28.67612 c 0,-15.77187 0.38974,-29.43835 0.86608,-30.36997 0.47635,-0.93162 2.07544,-5.86403 3.55355,-10.960912 1.4781,-5.096882 3.25583,-11.022921 3.95049,-13.168977 0.69466,-2.146055 2.20906,-7.194163 3.36531,-11.218017 1.15626,-4.023854 2.92563,-9.949893 3.93194,-13.168977 5.71289,-18.275021 8.71963,-28.606576 8.71963,-29.961859 0,-2.207622 -2.07645,-2.716712 -11.08075,-2.716712 -9.00519,0 -11.822,1.251512 -12.56856,5.584226 -0.97631,5.666119 -10.73834,42.739755 -11.4576,43.512979 -0.74735,0.803438 -2.47059,-4.143378 -5.37966,-15.443154 -6.29758,-24.461816 -8.56321,-32.248843 -9.56885,-32.888303 -0.6365,-0.404731 -5.35329,-0.742595 -10.48176,-0.75081 -10.45516,-0.01675 -13.61341,1.169673 -11.83612,4.446338 1.21819,2.245891 5.72549,15.081346 13.67681,38.947573 11.16986,33.526805 10.82292,31.390255 10.86371,66.901645 0.0188,16.40839 0.32691,30.12608 0.68459,30.48375 0.80849,0.80848 17.57397,0.83742 20.56636,0.0355 z"
         id="path4123"
         inkscape:connector-curvature="0"
         transform="matrix(0.16482406,0,0,0.16556351,13.663148,13.167408)" />
      <path
         style="opacity:0;fill:#ff0000;fill-opacity:1;stroke-width:0.97547972"
         d="M 109.16631,309.27825 V 248.79851 H 97.948294 86.730277 v -9.26706 -9.26706 h 32.678573 32.67857 v 9.26706 9.26706 H 140.8694 129.65139 v 60.47974 60.47975 h -10.24254 -10.24254 z"
         id="path8619"
         inkscape:connector-curvature="0"
         transform="matrix(0.16482406,0,0,0.16556351,13.663148,13.167408)" />
      <path
         style="opacity:0;fill:#ff0000;fill-opacity:1;stroke-width:0.97547972"
         d="m 163.74383,370.16872 c -1.90494,-0.79183 -4.31925,-2.8543 -5.36514,-4.58326 -1.80578,-2.98515 -1.91607,-5.56458 -2.18847,-51.18594 l -0.28686,-48.04238 h 9.31005 9.31004 v 42.76992 c 0,41.23794 0.0685,42.83189 1.91166,44.49995 2.72828,2.46906 6.39801,1.24967 11.45349,-3.80582 l 4.19349,-4.19348 v -39.63528 -39.63529 h 8.77932 8.77931 v 51.70043 51.70043 h -8.77931 -8.77932 v -5.36514 c 0,-2.95083 -0.26768,-5.36514 -0.59484,-5.36514 -0.32716,0 -2.98579,2.1852 -5.90808,4.856 -3.57316,3.26568 -6.95047,5.34221 -10.31249,6.34061 -6.04262,1.79448 -7.08416,1.78945 -11.52285,-0.0556 z"
         id="path8621"
         inkscape:connector-curvature="0"
         transform="matrix(0.16482406,0,0,0.16556351,13.663148,13.167408)" />
      <path
         style="opacity:0;fill:#ff0000;fill-opacity:1;stroke-width:0.97547972"
         d="m 163.74383,370.16872 c -1.90494,-0.79183 -4.31925,-2.8543 -5.36514,-4.58326 -1.80578,-2.98515 -1.91607,-5.56458 -2.18847,-51.18594 l -0.28686,-48.04238 h 9.31005 9.31004 v 42.76992 c 0,41.23794 0.0685,42.83189 1.91166,44.49995 2.72828,2.46906 6.39801,1.24967 11.45349,-3.80582 l 4.19349,-4.19348 v -39.63528 -39.63529 h 8.77932 8.77931 v 51.70043 51.70043 h -8.77931 -8.77932 v -5.36514 c 0,-2.95083 -0.26768,-5.36514 -0.59484,-5.36514 -0.32716,0 -2.98579,2.1852 -5.90808,4.856 -3.57316,3.26568 -6.95047,5.34221 -10.31249,6.34061 -6.04262,1.79448 -7.08416,1.78945 -11.52285,-0.0556 z"
         id="path8623"
         inkscape:connector-curvature="0"
         transform="matrix(0.16482406,0,0,0.16556351,13.663148,13.167408)" />
      <path
         style="opacity:0;fill:#ff0000;fill-opacity:1;stroke-width:0.97547972"
         d="m 163.74383,370.16872 c -1.90494,-0.79183 -4.31925,-2.8543 -5.36514,-4.58326 -1.80578,-2.98515 -1.91607,-5.56458 -2.18847,-51.18594 l -0.28686,-48.04238 h 9.31005 9.31004 v 42.76992 c 0,41.23794 0.0685,42.83189 1.91166,44.49995 2.72828,2.46906 6.39801,1.24967 11.45349,-3.80582 l 4.19349,-4.19348 v -39.63528 -39.63529 h 8.77932 8.77931 v 51.70043 51.70043 h -8.77931 -8.77932 v -5.36514 c 0,-2.95083 -0.26768,-5.36514 -0.59484,-5.36514 -0.32716,0 -2.98579,2.1852 -5.90808,4.856 -3.57316,3.26568 -6.95047,5.34221 -10.31249,6.34061 -6.04262,1.79448 -7.08416,1.78945 -11.52285,-0.0556 z"
         id="path8625"
         inkscape:connector-curvature="0"
         transform="matrix(0.16482406,0,0,0.16556351,13.663148,13.167408)" />
      <path
         style="opacity:0;fill:#ff0000;fill-opacity:1;stroke-width:0.97547972"
         d="m 163.74383,370.16872 c -1.90494,-0.79183 -4.31925,-2.8543 -5.36514,-4.58326 -1.80578,-2.98515 -1.91607,-5.56458 -2.18847,-51.18594 l -0.28686,-48.04238 h 9.31005 9.31004 v 42.76992 c 0,41.23794 0.0685,42.83189 1.91166,44.49995 2.72828,2.46906 6.39801,1.24967 11.45349,-3.80582 l 4.19349,-4.19348 v -39.63528 -39.63529 h 8.77932 8.77931 v 51.70043 51.70043 h -8.77931 -8.77932 v -5.36514 c 0,-2.95083 -0.26768,-5.36514 -0.59484,-5.36514 -0.32716,0 -2.98579,2.1852 -5.90808,4.856 -3.57316,3.26568 -6.95047,5.34221 -10.31249,6.34061 -6.04262,1.79448 -7.08416,1.78945 -11.52285,-0.0556 z"
         id="path8627"
         inkscape:connector-curvature="0"
         transform="matrix(0.16482406,0,0,0.16556351,13.663148,13.167408)" />
      <path
         style="opacity:0;fill:#ff0000;fill-opacity:1;stroke-width:0.97547972"
         d="m 163.74383,370.16872 c -1.90494,-0.79183 -4.31925,-2.8543 -5.36514,-4.58326 -1.80578,-2.98515 -1.91607,-5.56458 -2.18847,-51.18594 l -0.28686,-48.04238 h 9.31005 9.31004 v 42.76992 c 0,41.23794 0.0685,42.83189 1.91166,44.49995 2.72828,2.46906 6.39801,1.24967 11.45349,-3.80582 l 4.19349,-4.19348 v -39.63528 -39.63529 h 8.77932 8.77931 v 51.70043 51.70043 h -8.77931 -8.77932 v -5.36514 c 0,-2.95083 -0.26768,-5.36514 -0.59484,-5.36514 -0.32716,0 -2.98579,2.1852 -5.90808,4.856 -3.57316,3.26568 -6.95047,5.34221 -10.31249,6.34061 -6.04262,1.79448 -7.08416,1.78945 -11.52285,-0.0556 z"
         id="path8629"
         inkscape:connector-curvature="0"
         transform="matrix(0.16482406,0,0,0.16556351,13.663148,13.167408)" />
      <path
         style="opacity:0;fill:#ff0000;fill-opacity:1;stroke-width:0.97547972"
         d="m 261.28418,370.78398 c -4.32685,-1.31294 -7.13328,-3.08365 -11.40492,-7.19589 l -4.14578,-3.9911 v 5.0805 5.08051 h -9.26706 -9.26706 v -69.74681 -69.7468 h 9.26706 9.26706 l 0.0512,23.16765 c 0.0477,21.60856 0.15708,23.0156 1.62498,20.90838 2.28595,-3.28155 8.99361,-7.62911 13.74428,-8.90834 9.02203,-2.42938 16.53447,2.02232 19.43215,11.51503 1.45419,4.7639 1.68239,10.16983 1.69424,40.13498 0.0153,38.66562 -0.54084,43.65647 -5.49306,49.29674 -3.9417,4.48935 -9.76888,6.14513 -15.50305,4.40515 z m -0.9344,-18.41865 c 3.74319,-3.7432 4.14351,-7.89014 3.75243,-38.87193 -0.30495,-24.15777 -0.43311,-25.68562 -2.37296,-28.28891 -3.27614,-4.3966 -6.55044,-5.05286 -11.6672,-2.33843 l -4.32857,2.29631 v 32.39183 c 0,35.48948 -0.2322,34.04705 5.87293,36.48293 3.97949,1.58776 5.83944,1.23212 8.74337,-1.6718 z"
         id="path8631"
         inkscape:connector-curvature="0"
         transform="matrix(0.16482406,0,0,0.16556351,13.663148,13.167408)" />
      <path
         style="opacity:0;fill:#ff0000;fill-opacity:1;stroke-width:0.97547972"
         d="m 261.28418,370.78398 c -4.32685,-1.31294 -7.13328,-3.08365 -11.40492,-7.19589 l -4.14578,-3.9911 v 5.0805 5.08051 h -9.26706 -9.26706 v -69.74681 -69.7468 h 9.26706 9.26706 l 0.0512,23.16765 c 0.0477,21.60856 0.15708,23.0156 1.62498,20.90838 2.28595,-3.28155 8.99361,-7.62911 13.74428,-8.90834 9.02203,-2.42938 16.53447,2.02232 19.43215,11.51503 1.45419,4.7639 1.68239,10.16983 1.69424,40.13498 0.0153,38.66562 -0.54084,43.65647 -5.49306,49.29674 -3.9417,4.48935 -9.76888,6.14513 -15.50305,4.40515 z m -0.9344,-18.41865 c 3.74319,-3.7432 4.14351,-7.89014 3.75243,-38.87193 -0.30495,-24.15777 -0.43311,-25.68562 -2.37296,-28.28891 -3.27614,-4.3966 -6.55044,-5.05286 -11.6672,-2.33843 l -4.32857,2.29631 v 32.39183 c 0,35.48948 -0.2322,34.04705 5.87293,36.48293 3.97949,1.58776 5.83944,1.23212 8.74337,-1.6718 z"
         id="path8633"
         inkscape:connector-curvature="0"
         transform="matrix(0.16482406,0,0,0.16556351,13.663148,13.167408)" />
      <path
         style="opacity:0;fill:#ff0000;fill-opacity:1;stroke-width:0.97547972"
         d="m 261.28418,370.78398 c -4.32685,-1.31294 -7.13328,-3.08365 -11.40492,-7.19589 l -4.14578,-3.9911 v 5.0805 5.08051 h -9.26706 -9.26706 v -69.74681 -69.7468 h 9.26706 9.26706 l 0.0512,23.16765 c 0.0477,21.60856 0.15708,23.0156 1.62498,20.90838 2.28595,-3.28155 8.99361,-7.62911 13.74428,-8.90834 9.02203,-2.42938 16.53447,2.02232 19.43215,11.51503 1.45419,4.7639 1.68239,10.16983 1.69424,40.13498 0.0153,38.66562 -0.54084,43.65647 -5.49306,49.29674 -3.9417,4.48935 -9.76888,6.14513 -15.50305,4.40515 z m -0.9344,-18.41865 c 3.74319,-3.7432 4.14351,-7.89014 3.75243,-38.87193 -0.30495,-24.15777 -0.43311,-25.68562 -2.37296,-28.28891 -3.27614,-4.3966 -6.55044,-5.05286 -11.6672,-2.33843 l -4.32857,2.29631 v 32.39183 c 0,35.48948 -0.2322,34.04705 5.87293,36.48293 3.97949,1.58776 5.83944,1.23212 8.74337,-1.6718 z"
         id="path8635"
         inkscape:connector-curvature="0"
         transform="matrix(0.16482406,0,0,0.16556351,13.663148,13.167408)" />
      <path
         style="opacity:0;fill:#ff0000;fill-opacity:1;stroke-width:0.97547972"
         d="m 246.17073,318.05757 c 0,-17.97321 0.13172,-25.32589 0.2927,-16.33929 0.16098,8.98661 0.16098,23.69197 0,32.67858 -0.16098,8.9866 -0.2927,1.63392 -0.2927,-16.33929 z"
         id="path8637"
         inkscape:connector-curvature="0"
         transform="matrix(0.16482406,0,0,0.16556351,13.663148,13.167408)" />
      <path
         style="opacity:0;fill:#ff0000;fill-opacity:1;stroke-width:0.97547972"
         d="m 261.28418,370.78398 c -4.32685,-1.31294 -7.13328,-3.08365 -11.40492,-7.19589 l -4.14578,-3.9911 v 5.0805 5.08051 h -9.26706 -9.26706 v -69.74681 -69.7468 h 9.26706 9.26706 l 0.0512,23.16765 c 0.0477,21.60856 0.15708,23.0156 1.62498,20.90838 2.28595,-3.28155 8.99361,-7.62911 13.74428,-8.90834 9.02203,-2.42938 16.53447,2.02232 19.43215,11.51503 1.45419,4.7639 1.68239,10.16983 1.69424,40.13498 0.0153,38.66562 -0.54084,43.65647 -5.49306,49.29674 -3.9417,4.48935 -9.76888,6.14513 -15.50305,4.40515 z m -0.9344,-18.41865 c 3.74319,-3.7432 4.14351,-7.89014 3.75243,-38.87193 -0.30495,-24.15777 -0.43311,-25.68562 -2.37296,-28.28891 -3.27614,-4.3966 -6.55044,-5.05286 -11.6672,-2.33843 l -4.32857,2.29631 v 32.39183 c 0,35.48948 -0.2322,34.04705 5.87293,36.48293 3.97949,1.58776 5.83944,1.23212 8.74337,-1.6718 z"
         id="path8639"
         inkscape:connector-curvature="0"
         transform="matrix(0.16482406,0,0,0.16556351,13.663148,13.167408)" />
      <path
         style="opacity:0;fill:#ff0000;fill-opacity:1;stroke-width:0.97547972"
         d="m 261.28418,370.78398 c -4.32685,-1.31294 -7.13328,-3.08365 -11.40492,-7.19589 l -4.14578,-3.9911 v 5.0805 5.08051 h -9.26706 -9.26706 v -69.74681 -69.7468 h 9.26706 9.26706 l 0.0512,23.16765 c 0.0477,21.60856 0.15708,23.0156 1.62498,20.90838 2.28595,-3.28155 8.99361,-7.62911 13.74428,-8.90834 9.02203,-2.42938 16.53447,2.02232 19.43215,11.51503 1.45419,4.7639 1.68239,10.16983 1.69424,40.13498 0.0153,38.66562 -0.54084,43.65647 -5.49306,49.29674 -3.9417,4.48935 -9.76888,6.14513 -15.50305,4.40515 z m -0.9344,-18.41865 c 3.74319,-3.7432 4.14351,-7.89014 3.75243,-38.87193 -0.30495,-24.15777 -0.43311,-25.68562 -2.37296,-28.28891 -3.27614,-4.3966 -6.55044,-5.05286 -11.6672,-2.33843 l -4.32857,2.29631 v 32.39183 c 0,35.48948 -0.2322,34.04705 5.87293,36.48293 3.97949,1.58776 5.83944,1.23212 8.74337,-1.6718 z"
         id="path8641"
         inkscape:connector-curvature="0"
         transform="matrix(0.16482406,0,0,0.16556351,13.663148,13.167408)" />
      <path
         style="opacity:0;fill:#ff0000;fill-opacity:1;stroke-width:0.97547972"
         d="M 38.93177,439.01346 C 24.536638,437.07284 12.828771,428.34402 6.3880164,414.75042 L 3.3267591,408.28945 V 222.46055 36.631663 L 6.3880164,30.170692 C 11.582644,19.207113 19.466907,11.987367 30.640192,7.9625879 L 36.49307,5.8542962 222.32196,6.1230436 408.15085,6.391791 414.6962,9.6767452 c 7.92172,3.9757178 16.44444,12.5289408 19.78144,19.8522338 1.2911,2.833448 2.80616,8.005003 3.36678,11.492343 1.41427,8.797488 1.41427,354.080978 0,362.878468 -2.97316,18.49457 -17.6063,32.69007 -36.18431,35.10213 -8.46135,1.09856 -354.58328,1.10958 -362.72834,0.0115 z m 284.35235,-29.6801 c 23.82153,-2.2855 32.09465,-5.29655 40.33291,-14.67939 6.65901,-7.5842 9.65584,-16.33708 12.53177,-36.60173 1.44685,-10.19492 1.73213,-19.30844 1.74049,-55.60235 0.01,-43.80461 -0.45078,-51.84128 -3.99968,-69.7468 -2.1053,-10.62207 -5.55966,-17.51566 -12.00865,-23.96465 -7.73199,-7.73199 -14.22238,-10.52152 -28.21935,-12.12853 -24.87254,-2.85564 -52.01775,-3.74646 -113.77835,-3.73385 -61.71113,0.0126 -87.00088,0.85863 -112.00626,3.74703 -13.930162,1.60908 -21.675181,4.81246 -28.756571,11.89386 -11.890809,11.8908 -15.474632,29.68094 -16.466416,81.73945 -0.927609,48.69001 2.066147,81.62857 8.641488,95.0773 3.972997,8.12606 10.856833,14.96932 18.794712,18.6839 5.056617,2.36628 8.77908,3.20891 19.256707,4.35905 24.71345,2.71283 41.61366,3.12281 118.82792,2.88259 64.68653,-0.20125 80.46327,-0.52072 95.10928,-1.92588 z m -96.51779,-235.3286 c 6.06313,-2.06592 13.23318,-9.24108 15.62605,-15.6372 1.49927,-4.00754 1.80572,-8.80406 2.13728,-33.45282 0.50328,-37.4149 -0.53711,-42.977461 -9.56355,-51.132304 -5.78235,-5.224008 -9.94654,-6.758055 -18.49703,-6.814136 -9.33762,-0.06124 -16.0111,2.723168 -21.51623,8.977326 -6.76504,7.685498 -7.26042,10.826822 -7.26042,46.040514 0,29.70172 0.074,30.91067 2.21776,36.2106 3.26911,8.0822 9.71688,14.07872 17.77326,16.52936 4.35345,1.32426 14.1682,0.95326 19.08288,-0.72134 z m 56.03538,-0.39758 c 2.41431,-1.09312 6.47474,-3.74341 9.02318,-5.88952 l 4.63353,-3.90202 v 5.4232 5.42321 h 9.7548 9.7548 V 121.4984 68.334755 h -9.7548 -9.7548 v 40.364785 40.36479 l -3.76481,3.87937 c -4.84689,4.99439 -8.70924,6.09166 -11.09062,3.15078 -1.59466,-1.96932 -1.72772,-5.43105 -1.72772,-44.94668 V 68.334755 h -9.78909 -9.78909 l 0.27816,49.017855 c 0.25341,44.65665 0.43114,49.29772 1.99751,52.16344 3.36751,6.16091 11.86288,7.87902 20.22895,4.09113 z M 161.84222,146.1584 v -28.50364 l 12.68123,-41.738439 c 6.97468,-22.95614 12.68124,-42.393491 12.68124,-43.194115 0,-1.197642 -1.80543,-1.455681 -10.18496,-1.455681 -7.04026,0 -10.42864,0.374153 -10.97415,1.21179 -0.43405,0.666485 -3.90866,13.067189 -7.72135,27.557121 l -6.93217,26.345328 -1.53486,-5.364956 c -0.84417,-2.950725 -4.03107,-14.583239 -7.08199,-25.85003 -3.05093,-11.266791 -5.95044,-21.253265 -6.44337,-22.192164 -0.77044,-1.467517 -2.39729,-1.707089 -11.59217,-1.707089 -7.66083,0 -10.69596,0.331724 -10.69596,1.169015 0,0.642959 4.81795,15.458057 10.70657,32.922442 15.73156,46.656478 15.62858,46.124328 15.63012,80.771278 l 0.001,28.53279 h 10.73028 10.73028 z"
         id="path8643"
         inkscape:connector-curvature="0"
         transform="matrix(0.16482406,0,0,0.16556351,13.663148,13.167408)" />
    </g>
  </g>
</svg>
